<svg width="16" height="18" viewBox="0 0 16 18" fill="none" xmlns="http://www.w3.org/2000/svg">
<path d="M14.3856 2.89648H0.7181C0.321468 2.89648 0 3.21795 0 3.61458V17.2821C0 17.6787 0.321468 18.0002 0.7181 18.0002H14.3856C14.7823 18.0002 15.1037 17.6787 15.1037 17.2821V3.61458C15.1037 3.21795 14.7823 2.89648 14.3856 2.89648ZM13.6675 16.564H1.4362V4.33265H13.6676V16.564H13.6675Z" fill="white"/>
<path d="M3.42281 1.43617H11.7049C12.1016 1.43617 12.423 1.1147 12.423 0.718065C12.423 0.321433 12.1016 0 11.7049 0H3.42281C3.02618 0 2.70471 0.321468 2.70471 0.7181C2.70471 1.11473 3.02618 1.43617 3.42281 1.43617Z" fill="white"/>
<path d="M4.26058 9.31124H10.8672C11.2638 9.31124 11.5853 8.98977 11.5853 8.59314V7.34847C11.5853 6.95184 11.2638 6.63037 10.8672 6.63037C10.4706 6.63037 10.1491 6.95184 10.1491 7.34847V7.87508H4.97868V7.34847C4.97868 6.95184 4.65721 6.63037 4.26058 6.63037C3.86395 6.63037 3.54248 6.95184 3.54248 7.34847V8.59314C3.54248 8.98953 3.86395 9.31124 4.26058 9.31124Z" fill="white"/>
</svg>
