<svg width="20" height="20" viewBox="0 0 20 20" fill="none" xmlns="http://www.w3.org/2000/svg">
<g clip-path="url(#clip0)">
<path d="M9.93588 10.7766C9.95659 10.7766 9.97729 10.7766 10.0021 10.7766C10.0104 10.7766 10.0187 10.7766 10.027 10.7766C10.0394 10.7766 10.056 10.7766 10.0684 10.7766C11.2819 10.7559 12.2635 10.3293 12.9883 9.51336C14.5828 7.71588 14.3177 4.6345 14.2887 4.34044C14.1852 2.13295 13.1415 1.07683 12.28 0.583972C11.6381 0.215366 10.8885 0.0165666 10.0518 0H10.0229C10.0187 0 10.0104 0 10.0063 0H9.98144C9.52171 0 8.61884 0.0745496 7.75323 0.567405C6.88349 1.06026 5.82323 2.11638 5.71968 4.34044C5.69069 4.6345 5.42563 7.71588 7.02016 9.51336C7.74081 10.3293 8.72238 10.7559 9.93588 10.7766ZM6.8255 4.44398C6.8255 4.43156 6.82965 4.41913 6.82965 4.41085C6.96632 1.44129 9.07442 1.12239 9.97729 1.12239H9.99386C10.0021 1.12239 10.0146 1.12239 10.027 1.12239C11.1452 1.14724 13.0463 1.60282 13.1746 4.41085C13.1746 4.42328 13.1746 4.4357 13.1788 4.44398C13.1829 4.47298 13.4728 7.28929 12.1558 8.772C11.634 9.36012 10.9382 9.65003 10.0229 9.65831C10.0146 9.65831 10.0104 9.65831 10.0021 9.65831C9.99386 9.65831 9.98972 9.65831 9.98144 9.65831C9.07027 9.65003 8.37034 9.36012 7.85263 8.772C6.53973 7.29758 6.82136 4.46883 6.8255 4.44398Z" fill="#B0B0B0"/>
<path d="M18.5049 15.8874C18.5049 15.8833 18.5049 15.8792 18.5049 15.875C18.5049 15.8419 18.5007 15.8088 18.5007 15.7715C18.4759 14.9514 18.422 13.0338 16.6246 12.4209C16.6121 12.4167 16.5956 12.4126 16.5832 12.4085C14.7153 11.9322 13.1622 10.8553 13.1456 10.8429C12.893 10.6648 12.5451 10.727 12.367 10.9796C12.1889 11.2322 12.251 11.5801 12.5036 11.7582C12.574 11.8079 14.2224 12.9552 16.285 13.4853C17.25 13.829 17.3576 14.8603 17.3866 15.8046C17.3866 15.8419 17.3866 15.875 17.3908 15.9082C17.3949 16.2809 17.3701 16.8566 17.3038 17.1879C16.6329 17.569 14.0029 18.886 10.0021 18.886C6.01782 18.886 3.37131 17.5648 2.69622 17.1838C2.62996 16.8524 2.60096 16.2768 2.60925 15.904C2.60925 15.8709 2.61339 15.8377 2.61339 15.8005C2.64238 14.8562 2.75006 13.8249 3.71507 13.4811C5.77761 12.951 7.42598 11.7996 7.49639 11.7541C7.74903 11.576 7.81115 11.2281 7.63306 10.9754C7.45497 10.7228 7.10707 10.6607 6.85443 10.8388C6.83787 10.8512 5.29303 11.928 3.41687 12.4043C3.4003 12.4085 3.38788 12.4126 3.37545 12.4167C1.57798 13.0338 1.52414 14.9514 1.49929 15.7673C1.49929 15.8046 1.49929 15.8377 1.49515 15.8709C1.49515 15.875 1.49515 15.8792 1.49515 15.8833C1.491 16.0987 1.48686 17.2045 1.70637 17.7595C1.74779 17.8672 1.82234 17.9583 1.92174 18.0204C2.04598 18.1032 5.02383 20.0001 10.0062 20.0001C14.9886 20.0001 17.9665 18.0991 18.0907 18.0204C18.186 17.9583 18.2647 17.8672 18.3061 17.7595C18.5132 17.2086 18.509 16.1028 18.5049 15.8874Z" fill="#B0B0B0"/>
</g>
<defs>
<clipPath id="clip0">
<rect width="20" height="20" fill="white" transform="matrix(-1 0 0 1 20 0)"/>
</clipPath>
</defs>
</svg>
