<svg width="40" height="40" viewBox="0 0 40 40" fill="none" xmlns="http://www.w3.org/2000/svg">
<path d="M37.105 16.252H27.8076V15.0463C30.8176 14.7718 33.184 12.2351 33.184 9.1546C33.184 5.89188 30.5297 3.2373 27.2667 3.2373C24.2736 3.2373 21.7944 5.47165 21.4044 8.35923H10.4473C9.48625 8.35923 9.48488 9.85612 10.4473 9.85612H21.3927C21.7033 12.4736 23.7285 14.5722 26.3107 14.9936V16.252H13.8536C12.9573 16.252 12.2283 16.9812 12.2283 17.8773V24.2899H10.1299C9.4185 24.2899 8.84332 25.4739 8.46338 25.9623C8.29698 26.1766 7.79916 27.1003 7.47987 27.123C7.18118 27.1441 6.75019 26.2205 6.60394 26.0047C6.27709 25.5211 5.76234 24.2899 5.04639 24.2899H2.85576C2.78504 24.2899 2.72736 24.2322 2.72736 24.1613V9.98475C2.72736 9.9138 2.78504 9.85612 2.85576 9.85612H4.42223C5.38331 9.85612 5.38468 8.35923 4.42223 8.35923H2.85599C1.95969 8.35923 1.23047 9.08845 1.23047 9.98475V24.1613C1.23047 25.0576 1.95969 25.7868 2.85599 25.7868H4.64928C4.64928 25.7868 6.1139 27.9509 6.11505 27.9529C6.72341 28.852 8.07908 28.8957 8.74467 28.0397L10.4961 25.7868H12.2283V32.0538C12.2283 32.9503 12.9575 33.6796 13.8538 33.6796H29.4652C29.4652 33.6796 31.2154 35.9311 31.2166 35.9322C31.8838 36.7905 33.2374 36.7452 33.8462 35.8457L35.3115 33.6796H37.105C38.0015 33.6796 38.7305 32.9503 38.7305 32.0538V17.8775C38.7305 16.9812 38.0015 16.252 37.105 16.252ZM22.8463 9.1546C22.8463 6.71723 24.8294 4.73419 27.267 4.73419C29.7043 4.73419 31.6871 6.71723 31.6871 9.1546C31.6871 11.5922 29.7043 13.5752 27.267 13.5752C24.8294 13.5752 22.8463 11.5922 22.8463 9.1546ZM37.2337 32.0538C37.2337 32.1248 37.1757 32.1827 37.105 32.1827H34.9142C34.6658 32.1827 34.4335 32.306 34.2943 32.5116L32.6061 35.0068C32.5818 35.0428 32.5475 35.0618 32.504 35.0632C32.4599 35.0648 32.4248 35.048 32.3981 35.0137L30.4217 32.4715C30.2802 32.2893 30.0621 32.1827 29.8309 32.1827H13.8536C13.7828 32.1827 13.7252 32.1248 13.7252 32.0538V17.8775C13.7252 17.8066 13.7826 17.7489 13.8536 17.7489H37.105C37.1757 17.7489 37.2337 17.8066 37.2337 17.8775V32.0538Z" fill="#26BCFE"/>
<path d="M32.8052 20.2358H18.6729C18.2598 20.2358 17.9244 20.5709 17.9244 20.9843C17.9244 21.3977 18.2598 21.7327 18.6729 21.7327H32.8052C33.2184 21.7327 33.5537 21.3977 33.5537 20.9843C33.5537 20.5709 33.2186 20.2358 32.8052 20.2358Z" fill="#26BCFE"/>
<path d="M32.8052 24.2778H18.6729C18.2598 24.2778 17.9244 24.6129 17.9244 25.0263C17.9244 25.4394 18.2598 25.7747 18.6729 25.7747H32.8052C33.2184 25.7747 33.5537 25.4394 33.5537 25.0263C33.5537 24.6129 33.2186 24.2778 32.8052 24.2778Z" fill="#26BCFE"/>
<path d="M32.8052 28.3193H18.6729C18.2598 28.3193 17.9244 28.6544 17.9244 29.0678C17.9244 29.4814 18.2598 29.8162 18.6729 29.8162H32.8052C33.2184 29.8162 33.5537 29.4814 33.5537 29.0678C33.5537 28.6544 33.2186 28.3193 32.8052 28.3193Z" fill="#26BCFE"/>
<path d="M7.41651 9.85619C7.81683 9.85619 8.15855 9.52088 8.16358 9.12033C8.16908 8.70514 7.82896 8.36205 7.41468 8.36182C7.00177 8.36136 6.65982 8.71269 6.66875 9.12537C6.67699 9.52248 7.01986 9.85619 7.41651 9.85619Z" fill="#26BCFE"/>
</svg>
