<svg width="55" height="55" viewBox="0 0 55 55" fill="none" xmlns="http://www.w3.org/2000/svg">
<path d="M42.0803 14.2611C42.0803 15.9274 40.8673 16.9407 39.9815 17.6843C39.6461 17.966 39.0217 18.4799 39.0233 18.6719C39.0294 19.4249 38.4239 20.0263 37.6708 20.0263C37.667 20.0263 37.6632 20.0263 37.6594 20.0263C36.9115 20.0263 36.3021 19.4434 36.2961 18.6942C36.2841 17.2174 37.3618 16.333 38.2279 15.6058C38.9074 15.0352 39.353 14.6337 39.353 14.2663C39.353 13.5225 38.7479 12.9174 38.0041 12.9174C37.26 12.9174 36.6547 13.5225 36.6547 14.2663C36.6547 15.0195 36.0442 15.6299 35.2911 15.6299C34.5379 15.6299 33.9274 15.0195 33.9274 14.2663C33.9274 12.0187 35.7561 10.1901 38.0038 10.1901C40.2517 10.1899 42.0803 12.0134 42.0803 14.2611ZM37.6971 21.2851C36.9439 21.2851 36.3636 21.8955 36.3636 22.6487V22.6592C36.3636 23.4124 36.9441 24.0177 37.6971 24.0177C38.4502 24.0177 39.0608 23.4019 39.0608 22.6487C39.0608 21.8955 38.4503 21.2851 37.6971 21.2851ZM10.2109 30.784C9.45773 30.784 8.84727 31.3945 8.84727 32.1477C8.84727 32.9008 9.45773 33.5113 10.2109 33.5113H10.3245C11.0777 33.5113 11.6882 32.9008 11.6882 32.1477C11.6882 31.3945 11.0777 30.784 10.3245 30.784H10.2109ZM14.9502 30.784C14.197 30.784 13.5865 31.3945 13.5865 32.1477C13.5865 32.9008 14.197 33.5113 14.9502 33.5113H15.0636C15.8168 33.5113 16.4273 32.9008 16.4273 32.1477C16.4273 31.3945 15.8168 30.784 15.0636 30.784H14.9502ZM55 9.00387V24.3525C55 27.9866 52.0861 30.9355 48.452 30.9355H30.7676C30.4218 30.9355 30.1371 30.9336 29.8989 30.9286C29.6494 30.9234 29.3685 30.9214 29.2589 30.9336C29.1448 31.0093 28.8652 31.2655 28.5956 31.5139C28.4888 31.6122 28.3679 31.7204 28.2374 31.8395L23.2341 36.3998C22.835 36.7639 22.2445 36.8581 21.7503 36.6402C21.2561 36.4222 20.9091 35.9328 20.9091 35.3927V20.9355H6.62424C4.49364 20.9355 2.72727 22.6814 2.72727 24.8117V40.1604C2.72727 42.2908 4.49379 43.9658 6.62424 43.9658H26.3779C26.718 43.9658 27.0362 44.1221 27.2874 44.3514L31.3636 48.1096V35.1492C31.3636 34.396 31.9741 33.7855 32.7273 33.7855C33.4805 33.7855 34.0909 34.396 34.0909 35.1492V51.2004C34.0909 51.7405 33.7818 52.2227 33.2874 52.4407C33.1106 52.5187 32.933 52.5495 32.7471 52.5495C32.4132 52.5495 32.0838 52.4124 31.8276 52.1784L25.8492 46.693H6.62424C2.99 46.693 0 43.7945 0 40.1602V24.8117C0 21.1777 2.99 18.2083 6.62424 18.2083H20.9091V9.00387C20.9091 5.36962 23.922 2.45068 27.5562 2.45068H48.4521C52.0861 2.45068 55 5.36962 55 9.00387ZM52.2727 9.00387C52.2727 6.87341 50.5823 5.17796 48.452 5.17796H27.5562C25.4258 5.17796 23.6364 6.87341 23.6364 9.00387V19.5846V32.3019L26.378 29.8242C26.505 29.7083 26.6473 29.6022 26.7511 29.5064C28.003 28.3528 28.3233 28.1684 29.9564 28.2021C30.1791 28.2067 30.4444 28.2084 30.7676 28.2084H48.452C50.5823 28.2084 52.2727 26.483 52.2727 24.3527V9.00387Z" fill="#26BCFE"/>
</svg>
