<svg width="64" height="64" viewBox="0 0 64 64" fill="none" xmlns="http://www.w3.org/2000/svg">
<g clip-path="url(#clip0)">
<path d="M48.9258 27.4351C48.9244 27.4232 48.9235 27.4112 48.9218 27.3995C48.9134 27.341 48.9022 27.2826 48.8864 27.225C48.8863 27.2244 48.886 27.2238 48.8859 27.2231C48.8711 27.1692 48.8523 27.1161 48.831 27.0635C48.8249 27.0485 48.8182 27.034 48.8117 27.0192C48.7949 26.9813 48.7763 26.9439 48.756 26.9071C48.7471 26.8911 48.7386 26.875 48.729 26.8592C48.724 26.8507 48.7199 26.8418 48.7146 26.8333C48.6931 26.7993 48.6697 26.7673 48.6459 26.7356C48.6414 26.7296 48.6378 26.7234 48.6333 26.7176C48.5971 26.6707 48.558 26.6271 48.5171 26.5858C48.5094 26.578 48.501 26.5708 48.493 26.5633C48.4574 26.5289 48.4205 26.4968 48.382 26.4665C48.3721 26.4589 48.3626 26.4512 48.3524 26.4438C48.3009 26.4056 48.2477 26.37 48.1923 26.3391L26.8603 14.2135L39.1426 6.47941L59.7335 18.1835L51.0616 23.6442C50.3848 24.0702 50.1816 24.9643 50.6078 25.6409C51.0338 26.3177 51.9277 26.5208 52.6045 26.0947L63.3231 19.3454C63.754 19.0742 64.0108 18.5965 63.9992 18.0874C63.9877 17.5783 63.7099 17.1129 63.2671 16.8612L39.8199 3.53341C39.3562 3.26959 38.7846 3.28262 38.3329 3.56685L23.2805 13.0453C23.2775 13.0472 23.2743 13.0492 23.2713 13.0511L15.7496 17.7875C15.7461 17.7897 15.7426 17.7918 15.7393 17.794L0.676668 27.279C0.245757 27.5502 -0.0109656 28.0279 0.000617968 28.537C0.0120568 29.0461 0.289919 29.5114 0.732703 29.7631L24.18 43.0909C24.4021 43.2173 24.6488 43.2802 24.8954 43.2802C25.1637 43.2802 25.4316 43.2056 25.6669 43.0575L36.3855 36.308C37.0623 35.882 37.2655 34.9879 36.8393 34.3113C36.4135 33.6345 35.5192 33.4312 34.8426 33.8575L24.8574 40.1451L4.26644 28.4407L16.5489 20.7064L38.51 33.1895L38.51 49.7226C38.51 50.2499 38.7965 50.7354 39.2581 50.9902C39.4763 51.1107 39.7173 51.1705 39.9579 51.1705C40.2264 51.1705 40.4942 51.0959 40.7294 50.9478L48.2608 46.2053C48.6818 45.9402 48.9373 45.4776 48.9373 44.9801L48.9373 27.6046C48.9373 27.5961 48.9358 27.588 48.9355 27.5794C48.9347 27.5314 48.9315 27.4833 48.9258 27.4351ZM41.4059 47.0999L41.4059 32.3473C41.4059 31.8264 41.1261 31.3458 40.6734 31.0885L19.3289 18.956L24.0801 15.9641L44.6709 27.6683L42.868 28.8035C42.1912 29.2295 41.9881 30.1236 42.4142 30.8003C42.6893 31.2375 43.1598 31.4769 43.6409 31.4769C43.9045 31.4769 44.1715 31.4049 44.411 31.2541L46.0412 30.2276L46.0412 44.181L41.4059 47.0999Z" fill="#26BCFE"/>
<path d="M61.7804 22.6863L51.0618 29.4357C50.385 29.8617 50.1819 30.7558 50.608 31.4324C50.8831 31.8697 51.3536 32.109 51.8347 32.109C52.0982 32.109 52.3652 32.0371 52.6047 31.8862L63.3233 25.1368C64.0001 24.7109 64.2033 23.8167 63.7771 23.1401C63.3512 22.4633 62.457 22.26 61.7804 22.6863Z" fill="#26BCFE"/>
<path d="M34.8425 39.6493L24.8573 45.9369L2.16369 33.0375C1.46896 32.6425 0.584553 32.8852 0.189407 33.5808C-0.20574 34.276 0.0373717 35.16 0.732679 35.5551L24.18 48.8829C24.4021 49.0093 24.6488 49.0722 24.8954 49.0722C25.1637 49.0722 25.4316 48.9976 25.6669 48.8495L36.3855 42.1C37.0623 41.674 37.2654 40.7799 36.8393 40.1033C36.4134 39.4263 35.5192 39.2231 34.8425 39.6493Z" fill="#26BCFE"/>
<path d="M61.7804 28.4784L51.0618 35.2277C50.385 35.6537 50.1819 36.5478 50.608 37.2245C50.8831 37.6617 51.3536 37.9011 51.8347 37.9011C52.0982 37.9011 52.3652 37.8291 52.6047 37.6782L63.3233 30.9289C64.0001 30.5029 64.2033 29.6088 63.7771 28.9321C63.3512 28.2552 62.457 28.0521 61.7804 28.4784Z" fill="#26BCFE"/>
<path d="M34.8425 45.4413L24.8573 51.7289L2.16369 38.8295C1.46896 38.4345 0.584553 38.6772 0.189407 39.3728C-0.20574 40.068 0.0373717 40.9519 0.732679 41.3471L24.18 54.6749C24.4021 54.8013 24.6488 54.8642 24.8954 54.8642C25.1637 54.8642 25.4316 54.7896 25.6669 54.6415L36.3855 47.892C37.0623 47.466 37.2654 46.5719 36.8393 45.8953C36.4134 45.2182 35.5192 45.015 34.8425 45.4413Z" fill="#26BCFE"/>
<path d="M61.7804 34.2702L51.0618 41.0196C50.385 41.4456 50.1819 42.3397 50.608 43.0163C50.8831 43.4536 51.3536 43.693 51.8347 43.693C52.0982 43.693 52.3652 43.621 52.6047 43.4701L63.3233 36.7208C64.0001 36.2948 64.2033 35.4007 63.7771 34.724C63.3512 34.0473 62.457 33.8441 61.7804 34.2702Z" fill="#26BCFE"/>
<path d="M34.8425 51.2328L24.8573 57.5204L2.16369 44.621C1.46896 44.226 0.584553 44.4687 0.189407 45.1643C-0.20574 45.8595 0.0373717 46.7435 0.732679 47.1386L24.18 60.4665C24.4021 60.5929 24.6488 60.6557 24.8954 60.6557C25.1637 60.6557 25.4316 60.5811 25.6669 60.433L36.3855 53.6835C37.0623 53.2575 37.2654 52.3634 36.8393 51.6868C36.4134 51.0099 35.5192 50.8066 34.8425 51.2328Z" fill="#26BCFE"/>
</g>
<defs>
<clipPath id="clip0">
<rect width="64" height="64" fill="white"/>
</clipPath>
</defs>
</svg>
