<svg width="19" height="16" viewBox="0 0 19 16" fill="none" xmlns="http://www.w3.org/2000/svg">
<path d="M4.43412 5.37996H13.5814C13.938 5.37996 14.2171 5.10089 14.2171 4.7443C14.2171 4.38771 13.938 4.10864 13.5814 4.10864H4.43412C4.07753 4.10864 3.79846 4.38771 3.79846 4.7443C3.79846 5.10089 4.07753 5.37996 4.43412 5.37996Z" fill="#B0B0B0"/>
<path d="M4.43412 8.44954H13.5814C13.938 8.44954 14.2171 8.17047 14.2171 7.81388C14.2171 7.45729 13.938 7.17822 13.5814 7.17822H4.43412C4.07753 7.17822 3.79846 7.45729 3.79846 7.81388C3.79846 8.17047 4.07753 8.44954 4.43412 8.44954Z" fill="#B0B0B0"/>
<path d="M0.635659 12.5581H2.68217V14.6512C2.68217 14.8992 2.82171 15.1163 3.03876 15.2248C3.13178 15.2713 3.22481 15.2868 3.31783 15.2868C3.45736 15.2868 3.5969 15.2403 3.70543 15.1628L7.11628 12.5736H17.3798C17.7364 12.5736 18.0155 12.2946 18.0155 11.938V0.635659C18.0155 0.27907 17.7364 0 17.3798 0H0.635659C0.27907 0 0 0.27907 0 0.635659V11.9225C0 12.2791 0.294574 12.5581 0.635659 12.5581ZM1.27132 1.27132H16.7287V11.2868H6.89922C6.75969 11.2868 6.62015 11.3333 6.51163 11.4109L3.95349 13.3643V11.9225C3.95349 11.5659 3.67442 11.2868 3.31783 11.2868H1.27132V1.27132Z" fill="#B0B0B0"/>
</svg>
