<svg width="20" height="20" viewBox="0 0 20 20" fill="none" xmlns="http://www.w3.org/2000/svg">
<path d="M16.7032 9.81201C16.3783 9.81201 16.1268 10.0624 16.1268 10.3888V18.2681H12.0393V15.0507C12.0393 14.7488 11.7878 14.485 11.4837 14.485H8.5283C8.2032 14.485 7.94137 14.7488 7.94137 15.0507V18.2681H3.86423V10.6504C3.86423 10.3463 3.61292 10.0937 3.28782 10.0937C2.98396 10.0937 2.73242 10.3463 2.73242 10.6504V18.845C2.73242 19.149 2.98396 19.4017 3.28782 19.4017H8.5283C8.83216 19.4017 9.0837 19.149 9.0837 18.845V15.6275H10.9073V18.845C10.9073 19.149 11.1588 19.4017 11.4837 19.4017H16.7032C17.0071 19.4017 17.2586 19.149 17.2586 18.845V10.3889C17.2586 10.0625 17.0071 9.81201 16.7032 9.81201Z" fill="#26BCFE"/>
<path d="M19.8368 10.2614L15.2883 5.69351V2.57892C15.2883 2.2547 15.0262 2.00431 14.7013 2.00431C14.3973 2.00431 14.1458 2.25474 14.1458 2.57892V4.55099L10.3937 0.77679C10.2787 0.660515 10.1422 0.5979 10.006 0.5979C9.8488 0.5979 9.71243 0.662737 9.59727 0.77679L0.175193 10.1988C-0.050854 10.4246 -0.0658214 10.7869 0.175193 10.9948C0.384704 11.2363 0.745588 11.2206 0.971635 10.9948L10.006 1.98192L19.0193 11.0798C19.1132 11.1737 19.2499 11.2273 19.4281 11.2273C19.5853 11.2273 19.7214 11.1737 19.8368 11.0798C20.0465 10.8696 20.0622 10.4895 19.8368 10.2614Z" fill="#26BCFE"/>
</svg>
