<svg width="23" height="23" viewBox="0 0 23 23" fill="none" xmlns="http://www.w3.org/2000/svg">
<g clip-path="url(#clip0)">
<path d="M22.7705 9.04919L15.0489 3.22641C14.8433 3.07134 14.56 3.07134 14.3543 3.22641L13.085 4.18364L11.8156 3.22641C11.61 3.07134 11.3267 3.07134 11.121 3.22641L9.8833 4.15974L8.64559 3.22641C8.43992 3.07134 8.15664 3.07134 7.95097 3.22641L0.229398 9.04919C0.0849529 9.1582 0 9.32877 0 9.50972V19.3133C0 19.6318 0.258237 19.89 0.57679 19.89H3.74683H6.97998H16.02H19.1901H22.4232C22.7418 19.89 23 19.6318 23 19.3133V9.50972C23 9.32877 22.915 9.1582 22.7705 9.04919ZM21.8464 18.7365H19.7668V9.50972C19.7668 9.32869 19.6819 9.1582 19.5374 9.04919L14.043 4.90603L14.7016 4.40933L21.8464 9.79721V18.7365ZM16.5968 18.7365V9.50972C16.5968 9.32869 16.5119 9.1582 16.3673 9.04919L10.8413 4.88221L11.4684 4.40941L18.6133 9.79729V18.7365H16.5968V18.7365ZM9.24298 18.7364H7.55677H7.35374V14.5538H9.24298V18.7364ZM10.3966 18.7364V13.977C10.3966 13.6585 10.1383 13.4002 9.81977 13.4002H6.77695C6.4584 13.4002 6.20016 13.6585 6.20016 13.977V18.7364H4.32362H1.15358V9.79712L8.29836 4.40924L15.4432 9.79712V18.7364H10.3966Z" fill="white"/>
</g>
<defs>
<clipPath id="clip0">
<rect width="23" height="23" fill="white" transform="matrix(1 0 0 -1 0 23)"/>
</clipPath>
</defs>
</svg>
