<svg width="19" height="19" viewBox="0 0 19 19" fill="none" xmlns="http://www.w3.org/2000/svg">
<path d="M0.755968 5.21616C1.17348 5.21616 1.51194 4.8777 1.51194 4.46019C1.51194 4.04268 1.17348 3.70422 0.755968 3.70422C0.338459 3.70422 0 4.04268 0 4.46019C0 4.8777 0.338459 5.21616 0.755968 5.21616Z" fill="white"/>
<path d="M18.9999 3.70422H3.77979V5.21616H18.9999V3.70422Z" fill="white"/>
<path d="M0.755968 15.2957C1.17348 15.2957 1.51194 14.9573 1.51194 14.5398C1.51194 14.1223 1.17348 13.7838 0.755968 13.7838C0.338459 13.7838 0 14.1223 0 14.5398C0 14.9573 0.338459 15.2957 0.755968 15.2957Z" fill="white"/>
<path d="M18.9999 13.7838H3.77979V15.2957H18.9999V13.7838Z" fill="white"/>
<path d="M0.755968 10.256C1.17348 10.256 1.51194 9.91751 1.51194 9.49999C1.51194 9.08248 1.17348 8.74402 0.755968 8.74402C0.338459 8.74402 0 9.08248 0 9.49999C0 9.91751 0.338459 10.256 0.755968 10.256Z" fill="white"/>
<path d="M18.9999 8.74402H3.77979V10.256H18.9999V8.74402Z" fill="white"/>
</svg>
