<svg width="24" height="24" viewBox="0 0 24 24" fill="none" xmlns="http://www.w3.org/2000/svg">
<path d="M18.207 11.5862C17.9786 11.5862 17.7932 11.7711 17.7932 12V14.4827C17.7932 17.6772 15.1946 20.2758 12.0001 20.2758C8.8056 20.2758 6.20698 17.6772 6.20698 14.4827V12C6.20698 11.7711 6.0216 11.5862 5.79319 11.5862C5.56477 11.5862 5.37939 11.7711 5.37939 12V14.4827C5.37939 17.9938 8.12864 20.8672 11.5863 21.0823V23.1724H9.51733C9.28891 23.1724 9.10353 23.3574 9.10353 23.5862C9.10353 23.815 9.28891 24 9.51733 24H14.4828C14.7113 24 14.8966 23.815 14.8966 23.5862C14.8966 23.3574 14.7113 23.1724 14.4828 23.1724H12.4139V21.0823C15.8715 20.8672 18.6208 17.9934 18.6208 14.4827V12C18.6208 11.7711 18.4354 11.5862 18.207 11.5862Z" fill="white"/>
<path d="M12.0001 19.0345C14.5097 19.0345 16.5518 16.9924 16.5518 14.4828V4.55172C16.5518 2.04207 14.5097 0 12.0001 0C9.49043 0 7.44836 2.04207 7.44836 4.55172V14.4828C7.44836 16.9924 9.49043 19.0345 12.0001 19.0345Z" fill="white"/>
</svg>
