<svg width="18" height="18" viewBox="0 0 18 18" fill="none" xmlns="http://www.w3.org/2000/svg">
<g clip-path="url(#clip0)">
<path d="M12.0369 9.53966C11.2269 8.27609 9.84743 7.52161 8.3467 7.52161C6.84611 7.52161 5.4665 8.27609 4.65667 9.53966L2.70495 12.5844C2.38113 13.0896 2.23171 13.6731 2.27277 14.2717C2.31383 14.8705 2.54166 15.4281 2.93154 15.8844C3.32169 16.3406 3.83723 16.6523 4.42238 16.7861C5.00754 16.9197 5.6074 16.8627 6.15699 16.6212L6.19283 16.6052C7.57587 16.0091 9.15667 16.0145 10.5363 16.6212C10.8921 16.7776 11.2691 16.8567 11.6495 16.8567C11.8563 16.8567 12.0643 16.8332 12.2705 16.7862C12.8556 16.6526 13.3712 16.3409 13.7615 15.8847C14.1515 15.4285 14.3794 14.8708 14.4206 14.272C14.4618 13.6731 14.3124 13.0896 13.9886 12.5842L12.0369 9.53966ZM12.9596 15.1989C12.4631 15.7792 11.66 15.9627 10.961 15.6553C10.1302 15.2899 9.23838 15.1073 8.34629 15.1073C7.45502 15.1073 6.56335 15.2898 5.73305 15.6548L5.70943 15.6652C5.01578 15.9586 4.22449 15.7728 3.73354 15.1989C3.23765 14.6184 3.1812 13.7966 3.59319 13.1537L5.54505 10.109C6.16001 9.14964 7.20728 8.57684 8.3467 8.57684C9.48612 8.57684 10.5335 9.14964 11.1486 10.109L13.1002 13.1536C13.5123 13.7967 13.4558 14.6186 12.9596 15.1989Z" fill="white"/>
<path d="M3.23068 9.53577C3.81131 9.31275 4.25241 8.84487 4.47282 8.21823C4.68239 7.62195 4.66522 6.94876 4.42421 6.32254C4.18306 5.69672 3.74443 5.18586 3.18921 4.88387C2.6057 4.56678 1.96478 4.51514 1.38512 4.73858C0.218917 5.18696 -0.316254 6.62809 0.192275 7.95181C0.598495 9.0054 1.54593 9.67049 2.5038 9.67049C2.74838 9.67049 2.99365 9.6271 3.23068 9.53577ZM1.17693 7.57278C0.877273 6.79275 1.14053 5.96301 1.76414 5.72323C1.87675 5.67983 1.99582 5.65827 2.11735 5.65827C2.30495 5.65827 2.49872 5.7095 2.68521 5.81098C3.02057 5.99322 3.2885 6.30963 3.43956 6.7017C3.59048 7.09405 3.60394 7.50824 3.47732 7.86818C3.36128 8.19804 3.13922 8.44057 2.8522 8.55084L2.85165 8.55112C2.22887 8.79117 1.47754 8.35213 1.17693 7.57278Z" fill="white"/>
<path d="M7.01762 7.15031C8.47551 7.15031 9.66162 5.799 9.66162 4.138C9.66162 2.47659 8.47551 1.125 7.01762 1.125C5.55988 1.125 4.3739 2.47659 4.3739 4.138C4.3739 5.799 5.55988 7.15031 7.01762 7.15031ZM7.01762 2.1801C7.89365 2.1801 8.60652 3.05846 8.60652 4.138C8.60652 5.21713 7.89365 6.09521 7.01762 6.09521C6.1416 6.09521 5.429 5.21713 5.429 4.138C5.429 3.05846 6.1416 2.1801 7.01762 2.1801Z" fill="white"/>
<path d="M11.5838 7.89036H11.584C11.8082 7.9648 12.037 8.00037 12.2649 8.00037C13.3281 8.00037 14.3642 7.22652 14.7596 6.03725C14.9873 5.35266 14.9723 4.6288 14.7174 3.99914C14.4507 3.3401 13.9565 2.86165 13.3256 2.65181C12.6947 2.44224 12.012 2.52959 11.4038 2.8979C10.8228 3.24988 10.3775 3.82062 10.1503 4.5052C9.6703 5.94936 10.3134 7.46794 11.5838 7.89036ZM11.1515 4.83795C11.3 4.39094 11.5837 4.02263 11.9505 3.80043C12.2899 3.59485 12.6601 3.54253 12.9928 3.65308C13.3255 3.76376 13.5905 4.02716 13.7394 4.39493C13.9002 4.79236 13.907 5.25735 13.7583 5.70436C13.4618 6.59645 12.6356 7.12791 11.9167 6.8891C11.1984 6.65015 10.855 5.73004 11.1515 4.83795Z" fill="white"/>
<path d="M17.1519 7.53888L17.1515 7.53847C16.1461 6.79579 14.6425 7.11769 13.7994 8.25642C12.9572 9.3957 13.0889 10.9273 14.0927 11.6705C14.4589 11.9418 14.8914 12.0714 15.3342 12.0714C16.1058 12.0714 16.9087 11.6776 17.4452 10.9533C18.2874 9.814 18.1559 8.28237 17.1519 7.53888ZM16.5972 10.3256C16.0994 10.9975 15.2577 11.2204 14.7206 10.8225C14.1839 10.4253 14.1512 9.55541 14.6477 8.88387C14.9777 8.43811 15.4597 8.19009 15.904 8.19009C16.1286 8.19009 16.3437 8.25354 16.5244 8.38716C17.0607 8.78486 17.0932 9.65443 16.5972 10.3256Z" fill="white"/>
</g>
<defs>
<clipPath id="clip0">
<rect width="18" height="18" fill="white"/>
</clipPath>
</defs>
</svg>
