<svg width="45" height="45" viewBox="0 0 45 45" fill="none" xmlns="http://www.w3.org/2000/svg">
<g clip-path="url(#clip0)">
<path d="M12.038 28.3216C12.4582 28.0792 12.602 27.5412 12.3597 27.121C12.1169 26.7011 11.5793 26.5569 11.1591 26.7993C10.7388 27.042 10.5946 27.58 10.8374 27.9999C11.0797 28.4201 11.6177 28.5643 12.038 28.3216Z" fill="#26BCFE"/>
<path d="M8.43611 34.3876L12.8622 42.0543C13.8174 43.7105 15.9659 44.3237 17.665 43.3414C19.3462 42.3698 19.924 40.2216 18.9514 38.539L16.3147 33.9715L18.5981 32.6531C19.0184 32.41 19.1625 31.8727 18.9198 31.4525L17.7769 29.4729C17.9132 29.4465 18.8093 29.2707 34.6114 26.1708C36.5649 26.0647 37.7353 23.9282 36.7486 22.2202L33.8276 17.161L35.6942 14.3337C35.8776 14.0556 35.8885 13.6982 35.722 13.4099L33.9642 10.3653C33.7977 10.0769 33.4815 9.90796 33.1502 9.92753L29.7688 10.1304L26.5261 4.51367C26.0565 3.7 25.215 3.20733 24.2757 3.19566C24.2643 3.19531 24.2533 3.19531 24.242 3.19531C23.3343 3.19531 22.5103 3.64713 22.0221 4.41102L10.5407 19.0373L3.0765 23.3466C0.140748 25.0409 -0.876174 28.8072 0.824647 31.7508C2.37853 34.4425 5.65451 35.5013 8.43611 34.3876ZM17.4295 39.4183C17.9149 40.258 17.6276 41.3326 16.7854 41.8191C15.9405 42.3077 14.8645 42.0076 14.3845 41.1757L9.98999 33.5632L13.0346 31.8054C18.1206 40.6158 17.3477 39.2772 17.4295 39.4183ZM15.4358 32.4488L14.5569 30.9265L16.0792 30.0476L16.9581 31.5699L15.4358 32.4488ZM32.7135 11.7145L33.9282 13.8184L32.845 15.4588L30.7514 11.8323L32.7135 11.7145ZM23.4922 5.37473C23.7281 4.98883 24.1023 4.94901 24.254 4.95312C24.4041 4.95484 24.7779 5.00153 25.0035 5.39223L35.2263 23.0991C35.5593 23.6755 35.1545 24.4003 34.4868 24.4168C34.3669 24.4195 34.3117 24.4412 34.0047 24.4985L23.1911 5.76852C23.418 5.47669 23.4472 5.44854 23.4922 5.37473ZM22.0214 7.25854L32.1813 24.8562L16.8479 27.8637L12.1855 19.7884L22.0214 7.25854ZM2.34694 30.8719C1.96105 30.2042 1.75711 29.4461 1.75711 28.6791C1.75711 27.1115 2.59963 25.6517 3.95541 24.8689L10.8057 20.9139L15.2003 28.5253L8.34994 32.4807C6.25121 33.692 3.55853 32.9703 2.34694 30.8719Z" fill="#26BCFE"/>
<path d="M9.31501 28.8785C9.07228 28.4583 8.53464 28.3141 8.11441 28.5568L6.59212 29.4358C6.17257 29.6781 5.6339 29.5336 5.39152 29.1141C5.14879 28.6938 4.61114 28.5496 4.19092 28.7924C3.77069 29.0351 3.62649 29.5727 3.86922 29.993C4.5926 31.2461 6.20622 31.688 7.47102 30.9581L8.99331 30.0791C9.41354 29.8364 9.55774 29.2991 9.31501 28.8785Z" fill="#26BCFE"/>
<path d="M43.6937 5.07555L38.7962 7.80084C38.3722 8.03705 38.2194 8.57229 38.4556 8.99629C38.6911 9.41995 39.226 9.57342 39.6511 9.33687L44.5482 6.61157C44.9726 6.37537 45.125 5.84013 44.8888 5.41612C44.6529 4.99178 44.1177 4.83934 43.6937 5.07555Z" fill="#26BCFE"/>
<path d="M43.18 14.1783L39.7842 13.2685C39.3152 13.1428 38.8332 13.4209 38.7075 13.8899C38.5819 14.3589 38.8603 14.8405 39.3293 14.9662L42.7254 15.876C43.1971 16.0027 43.6768 15.7201 43.8017 15.2546C43.9274 14.7856 43.649 14.3036 43.18 14.1783Z" fill="#26BCFE"/>
<path d="M34.6465 1.88207L33.7356 5.27821C33.61 5.74719 33.8881 6.22888 34.357 6.35487C34.8257 6.48019 35.3077 6.20278 35.4337 5.73346L36.3442 2.33731C36.4698 1.86834 36.1917 1.38631 35.7228 1.26066C35.2541 1.135 34.7721 1.41309 34.6465 1.88207Z" fill="#26BCFE"/>
</g>
<defs>
<clipPath id="clip0">
<rect width="45" height="45" fill="white"/>
</clipPath>
</defs>
</svg>
