<svg width="40" height="40" viewBox="0 0 40 40" fill="none" xmlns="http://www.w3.org/2000/svg">
<g clip-path="url(#clip0)">
<path d="M39.9574 15.4206C39.8722 15.1224 39.6166 14.9094 39.361 14.8668L27.22 12.0125L20.7022 1.36252C20.5318 1.10692 20.2762 0.936523 19.978 0.936523C19.6798 0.936523 19.4242 1.10692 19.2538 1.36252L12.7786 11.9699L0.637542 14.8242C0.339342 14.9094 0.126341 15.1224 0.0411408 15.378C-0.0440593 15.6762 -0.00145926 15.9744 0.211541 16.1874L8.34816 25.6872L7.36836 38.1264C7.32576 38.4246 7.49616 38.7228 7.70916 38.8932C7.96476 39.0636 8.26296 39.1062 8.51856 38.9784L19.978 34.1646L31.48 38.9784C31.5652 39.021 31.693 39.0636 31.8208 39.0636C31.9912 39.0636 32.1616 39.021 32.332 38.8932C32.5876 38.7228 32.7154 38.4246 32.6728 38.1264L31.693 25.6872L39.8296 16.1874C40 16.017 40.0426 15.6762 39.9574 15.4206ZM30.1594 24.8778C30.0316 25.0482 29.9464 25.2612 29.9464 25.5168L30.841 36.891L20.3188 32.5032C20.2336 32.4606 20.1058 32.418 19.978 32.418C19.8502 32.418 19.765 32.4606 19.6372 32.5032L9.11496 36.891L10.0096 25.5168C10.0096 25.3038 9.96696 25.0482 9.79656 24.8778L2.42675 16.1874L13.5454 13.5888C13.7584 13.5462 13.9714 13.3758 14.0992 13.2054L20.0206 3.44993L25.9846 13.2054C26.1124 13.4184 26.2828 13.5462 26.4958 13.5888L37.6144 16.1874L30.1594 24.8778Z" fill="#26BCFE"/>
<path d="M10.0948 19.4673L9.24278 18.4449C8.94458 18.1041 8.39078 18.0189 8.04998 18.3171C7.70918 18.6153 7.62398 19.1691 7.92218 19.5099L8.77418 20.5323C8.94458 20.7453 9.20018 20.8305 9.41318 20.8305C9.62618 20.8305 9.79658 20.7453 9.96698 20.6175C10.3504 20.3619 10.393 19.8507 10.0948 19.4673Z" fill="#26BCFE"/>
<path d="M11.671 21.2568C11.3728 20.916 10.819 20.8734 10.4782 21.1716C10.1374 21.4698 10.0948 22.0236 10.393 22.3644L10.6486 22.6626C11.6284 23.8128 12.097 25.2612 11.9692 26.7522L11.7562 29.436C11.7136 29.9046 12.0544 30.3306 12.523 30.3732C12.5656 30.3732 12.5656 30.3732 12.6082 30.3732C13.0342 30.3732 13.4176 30.0324 13.4602 29.6064L13.6732 26.9226C13.801 25.0056 13.2046 23.1312 11.9266 21.5976L11.671 21.2568Z" fill="#26BCFE"/>
</g>
<defs>
<clipPath id="clip0">
<rect width="40" height="40" fill="white"/>
</clipPath>
</defs>
</svg>
