<svg width="20" height="20" viewBox="0 0 20 20" fill="none" xmlns="http://www.w3.org/2000/svg">
<path d="M19.9726 7.21642C19.9069 7.01528 19.7345 6.87161 19.5251 6.83877L13.2857 5.95211L10.4779 0.307868C10.3835 0.119042 10.1906 0 9.98124 0C9.77189 0 9.57896 0.119042 9.48454 0.311973L6.71373 5.97264L0.474278 6.90035C0.264928 6.93319 0.0925219 7.07686 0.0268434 7.278C-0.0388351 7.47914 0.0186336 7.7008 0.170515 7.84447L4.69823 12.2326L3.65147 18.4474C3.61453 18.6568 3.70073 18.8661 3.87314 18.9893C3.96755 19.0591 4.08249 19.096 4.19743 19.096C4.28773 19.096 4.37394 19.0755 4.45604 19.0303L10.0264 16.0789L15.6132 18.9975C15.6953 19.0386 15.7815 19.0591 15.8677 19.0591C16.1714 19.0591 16.4218 18.8087 16.4218 18.5049C16.4218 18.4598 16.4177 18.4187 16.4054 18.3777L15.3258 12.1998L19.8248 7.78701C19.9849 7.63923 20.0383 7.41756 19.9726 7.21642ZM14.3489 11.6128C14.2175 11.74 14.16 11.9248 14.1929 12.1054L15.1329 17.4951L10.2809 14.9624C10.1208 14.8762 9.92788 14.8803 9.76368 14.9624L4.9281 17.5238L5.83528 12.1259C5.86402 11.9453 5.80655 11.7647 5.67519 11.6374L1.7509 7.82805L7.16527 7.02349C7.34589 6.99476 7.50188 6.88393 7.57987 6.71973L9.98534 1.80616L12.4237 6.70742C12.5058 6.87161 12.6617 6.98244 12.8424 7.01118L18.2608 7.7829L14.3489 11.6128Z" fill="#B0B0B0"/>
</svg>
