<svg width="12" height="12" viewBox="0 0 12 12" fill="none" xmlns="http://www.w3.org/2000/svg">
<path d="M11.733 1.48276C12.0759 1.15512 12.089 0.610718 11.7624 0.266811C11.4358 -0.0770966 10.8931 -0.0902828 10.5503 0.237359C10.5503 0.237359 5.25995 5.37179 5.24552 5.38669C4.90743 5.7415 4.92008 6.30407 5.27376 6.64322L10.5502 11.7617C10.8925 12.0899 11.4352 12.0776 11.7624 11.7342C12.0896 11.3909 12.0773 10.8465 11.7351 10.5182L7.51757 6.35633C7.3192 6.16058 7.31917 5.84043 7.51749 5.64463L11.733 1.48276Z" fill="#DADADA"/>
<path d="M0.266962 10.5172C-0.075863 10.8449 -0.089008 11.3893 0.237602 11.7332C0.564212 12.0771 1.1069 12.0903 1.44972 11.7626C1.44972 11.7626 6.74005 6.62821 6.75448 6.61331C7.09257 6.2585 7.07992 5.69593 6.72624 5.35678L1.44977 0.238351C1.10749 -0.0898651 0.564784 -0.0775888 0.237601 0.26577C-0.089582 0.609129 -0.0773448 1.15355 0.264933 1.48176L4.48243 5.64367C4.6808 5.83942 4.68083 6.15957 4.48251 6.35537L0.266962 10.5172Z" fill="#DADADA"/>
</svg>
